<mxfile host="app.diagrams.net" modified="2024-02-06T17:44:27.462Z" agent="Mozilla/5.0 (Windows NT 10.0; Win64; x64) AppleWebKit/537.36 (KHTML, like Gecko) Chrome/120.0.0.0 Safari/537.36 OPR/106.0.0.0" etag="AjhsoLQbvp6xssr3h1o_" version="23.1.1" type="github">
  <diagram name="PÃ¡gina-1" id="Nk8MD8-2_eux1J7ynW9U">
    <mxGraphModel dx="1835" dy="985" grid="1" gridSize="10" guides="1" tooltips="1" connect="1" arrows="1" fold="1" page="1" pageScale="1" pageWidth="827" pageHeight="1169" math="0" shadow="0">
      <root>
        <mxCell id="0" />
        <mxCell id="1" parent="0" />
        <mxCell id="_r8GsOCW0zwGEENWKaKQ-21" style="edgeStyle=orthogonalEdgeStyle;rounded=0;orthogonalLoop=1;jettySize=auto;html=1;entryX=0.5;entryY=0;entryDx=0;entryDy=0;" edge="1" parent="1" source="_r8GsOCW0zwGEENWKaKQ-9" target="_r8GsOCW0zwGEENWKaKQ-20">
          <mxGeometry relative="1" as="geometry" />
        </mxCell>
        <mxCell id="_r8GsOCW0zwGEENWKaKQ-9" value="" style="whiteSpace=wrap;html=1;aspect=fixed;" vertex="1" parent="1">
          <mxGeometry x="30" y="70" width="460" height="460" as="geometry" />
        </mxCell>
        <mxCell id="_r8GsOCW0zwGEENWKaKQ-11" style="edgeStyle=orthogonalEdgeStyle;rounded=0;orthogonalLoop=1;jettySize=auto;html=1;" edge="1" parent="1" source="_r8GsOCW0zwGEENWKaKQ-1" target="_r8GsOCW0zwGEENWKaKQ-4">
          <mxGeometry relative="1" as="geometry" />
        </mxCell>
        <mxCell id="_r8GsOCW0zwGEENWKaKQ-12" style="edgeStyle=orthogonalEdgeStyle;rounded=0;orthogonalLoop=1;jettySize=auto;html=1;entryX=1;entryY=0.5;entryDx=0;entryDy=0;" edge="1" parent="1" source="_r8GsOCW0zwGEENWKaKQ-1" target="_r8GsOCW0zwGEENWKaKQ-3">
          <mxGeometry relative="1" as="geometry">
            <Array as="points">
              <mxPoint x="180" y="270" />
              <mxPoint x="180" y="270" />
            </Array>
          </mxGeometry>
        </mxCell>
        <mxCell id="_r8GsOCW0zwGEENWKaKQ-13" style="edgeStyle=orthogonalEdgeStyle;rounded=0;orthogonalLoop=1;jettySize=auto;html=1;" edge="1" parent="1" source="_r8GsOCW0zwGEENWKaKQ-1" target="_r8GsOCW0zwGEENWKaKQ-2">
          <mxGeometry relative="1" as="geometry" />
        </mxCell>
        <mxCell id="_r8GsOCW0zwGEENWKaKQ-14" style="edgeStyle=orthogonalEdgeStyle;rounded=0;orthogonalLoop=1;jettySize=auto;html=1;" edge="1" parent="1" source="_r8GsOCW0zwGEENWKaKQ-1" target="_r8GsOCW0zwGEENWKaKQ-6">
          <mxGeometry relative="1" as="geometry" />
        </mxCell>
        <mxCell id="_r8GsOCW0zwGEENWKaKQ-16" style="edgeStyle=orthogonalEdgeStyle;rounded=0;orthogonalLoop=1;jettySize=auto;html=1;" edge="1" parent="1">
          <mxGeometry relative="1" as="geometry">
            <mxPoint x="260" y="270" as="sourcePoint" />
            <mxPoint x="170" y="380" as="targetPoint" />
            <Array as="points">
              <mxPoint x="260" y="360" />
              <mxPoint x="171" y="360" />
            </Array>
          </mxGeometry>
        </mxCell>
        <mxCell id="_r8GsOCW0zwGEENWKaKQ-17" style="edgeStyle=orthogonalEdgeStyle;rounded=0;orthogonalLoop=1;jettySize=auto;html=1;" edge="1" parent="1" source="_r8GsOCW0zwGEENWKaKQ-1" target="_r8GsOCW0zwGEENWKaKQ-7">
          <mxGeometry relative="1" as="geometry">
            <Array as="points">
              <mxPoint x="260" y="360" />
              <mxPoint x="400" y="360" />
            </Array>
          </mxGeometry>
        </mxCell>
        <mxCell id="_r8GsOCW0zwGEENWKaKQ-1" value="Bifrost 3" style="rounded=1;whiteSpace=wrap;html=1;" vertex="1" parent="1">
          <mxGeometry x="210" y="235" width="100" height="70" as="geometry" />
        </mxCell>
        <mxCell id="_r8GsOCW0zwGEENWKaKQ-2" value="Almacen" style="rounded=0;whiteSpace=wrap;html=1;" vertex="1" parent="1">
          <mxGeometry x="200" y="110" width="120" height="60" as="geometry" />
        </mxCell>
        <mxCell id="_r8GsOCW0zwGEENWKaKQ-3" value="Factura" style="rounded=0;whiteSpace=wrap;html=1;" vertex="1" parent="1">
          <mxGeometry x="60" y="235" width="120" height="60" as="geometry" />
        </mxCell>
        <mxCell id="_r8GsOCW0zwGEENWKaKQ-4" value="Newtec" style="rounded=0;whiteSpace=wrap;html=1;" vertex="1" parent="1">
          <mxGeometry x="340" y="240" width="120" height="60" as="geometry" />
        </mxCell>
        <mxCell id="_r8GsOCW0zwGEENWKaKQ-5" value="Compra" style="rounded=0;whiteSpace=wrap;html=1;" vertex="1" parent="1">
          <mxGeometry x="60" y="380" width="120" height="60" as="geometry" />
        </mxCell>
        <mxCell id="_r8GsOCW0zwGEENWKaKQ-6" value="Starlink" style="whiteSpace=wrap;html=1;" vertex="1" parent="1">
          <mxGeometry x="200" y="380" width="120" height="60" as="geometry" />
        </mxCell>
        <mxCell id="_r8GsOCW0zwGEENWKaKQ-7" value="Ses" style="rounded=0;whiteSpace=wrap;html=1;" vertex="1" parent="1">
          <mxGeometry x="340" y="380" width="120" height="60" as="geometry" />
        </mxCell>
        <mxCell id="_r8GsOCW0zwGEENWKaKQ-10" value="SSO Observer JWT token" style="text;html=1;align=center;verticalAlign=middle;resizable=0;points=[];autosize=1;strokeColor=none;fillColor=none;" vertex="1" parent="1">
          <mxGeometry x="30" y="38" width="160" height="30" as="geometry" />
        </mxCell>
        <mxCell id="_r8GsOCW0zwGEENWKaKQ-30" style="edgeStyle=orthogonalEdgeStyle;rounded=0;orthogonalLoop=1;jettySize=auto;html=1;entryX=0.5;entryY=0;entryDx=0;entryDy=0;" edge="1" parent="1" source="_r8GsOCW0zwGEENWKaKQ-31" target="_r8GsOCW0zwGEENWKaKQ-25">
          <mxGeometry relative="1" as="geometry" />
        </mxCell>
        <mxCell id="_r8GsOCW0zwGEENWKaKQ-20" value="Laravel Auth" style="rounded=0;whiteSpace=wrap;html=1;" vertex="1" parent="1">
          <mxGeometry x="880" y="110" width="170" height="60" as="geometry" />
        </mxCell>
        <mxCell id="_r8GsOCW0zwGEENWKaKQ-22" value="JWT TOKEN KEYCLOAK" style="text;html=1;strokeColor=none;fillColor=none;align=center;verticalAlign=middle;whiteSpace=wrap;rounded=0;" vertex="1" parent="1">
          <mxGeometry x="680" y="170" width="110" height="30" as="geometry" />
        </mxCell>
        <mxCell id="_r8GsOCW0zwGEENWKaKQ-29" value="" style="whiteSpace=wrap;html=1;aspect=fixed;" vertex="1" parent="1">
          <mxGeometry x="910" y="235" width="105" height="105" as="geometry" />
        </mxCell>
        <mxCell id="_r8GsOCW0zwGEENWKaKQ-25" value="Signature" style="text;html=1;strokeColor=none;fillColor=none;align=center;verticalAlign=middle;whiteSpace=wrap;rounded=0;" vertex="1" parent="1">
          <mxGeometry x="880" y="240" width="170" height="30" as="geometry" />
        </mxCell>
        <mxCell id="_r8GsOCW0zwGEENWKaKQ-26" value="Expiration" style="text;html=1;strokeColor=none;fillColor=none;align=center;verticalAlign=middle;whiteSpace=wrap;rounded=0;" vertex="1" parent="1">
          <mxGeometry x="935" y="265" width="60" height="30" as="geometry" />
        </mxCell>
        <mxCell id="_r8GsOCW0zwGEENWKaKQ-27" value="structure" style="text;html=1;strokeColor=none;fillColor=none;align=center;verticalAlign=middle;whiteSpace=wrap;rounded=0;" vertex="1" parent="1">
          <mxGeometry x="932.5" y="285" width="60" height="30" as="geometry" />
        </mxCell>
        <mxCell id="_r8GsOCW0zwGEENWKaKQ-35" style="edgeStyle=orthogonalEdgeStyle;rounded=0;orthogonalLoop=1;jettySize=auto;html=1;entryX=0.5;entryY=0;entryDx=0;entryDy=0;" edge="1" parent="1" source="_r8GsOCW0zwGEENWKaKQ-28" target="_r8GsOCW0zwGEENWKaKQ-33">
          <mxGeometry relative="1" as="geometry" />
        </mxCell>
        <mxCell id="_r8GsOCW0zwGEENWKaKQ-28" value="resource_access&amp;nbsp;" style="text;html=1;strokeColor=none;fillColor=none;align=center;verticalAlign=middle;whiteSpace=wrap;rounded=0;" vertex="1" parent="1">
          <mxGeometry x="912.5" y="305" width="105" height="30" as="geometry" />
        </mxCell>
        <mxCell id="_r8GsOCW0zwGEENWKaKQ-32" value="" style="edgeStyle=orthogonalEdgeStyle;rounded=0;orthogonalLoop=1;jettySize=auto;html=1;entryX=0.5;entryY=0;entryDx=0;entryDy=0;" edge="1" parent="1" source="_r8GsOCW0zwGEENWKaKQ-20" target="_r8GsOCW0zwGEENWKaKQ-31">
          <mxGeometry relative="1" as="geometry">
            <mxPoint x="965" y="170" as="sourcePoint" />
            <mxPoint x="965" y="240" as="targetPoint" />
          </mxGeometry>
        </mxCell>
        <mxCell id="_r8GsOCW0zwGEENWKaKQ-31" value="Laravel Middleware" style="text;html=1;strokeColor=none;fillColor=none;align=center;verticalAlign=middle;whiteSpace=wrap;rounded=0;" vertex="1" parent="1">
          <mxGeometry x="905" y="190" width="120" height="20" as="geometry" />
        </mxCell>
        <mxCell id="_r8GsOCW0zwGEENWKaKQ-36" style="edgeStyle=orthogonalEdgeStyle;rounded=0;orthogonalLoop=1;jettySize=auto;html=1;" edge="1" parent="1" source="_r8GsOCW0zwGEENWKaKQ-33" target="_r8GsOCW0zwGEENWKaKQ-9">
          <mxGeometry relative="1" as="geometry">
            <Array as="points">
              <mxPoint x="965" y="640" />
              <mxPoint x="260" y="640" />
            </Array>
          </mxGeometry>
        </mxCell>
        <mxCell id="_r8GsOCW0zwGEENWKaKQ-45" style="edgeStyle=orthogonalEdgeStyle;rounded=0;orthogonalLoop=1;jettySize=auto;html=1;entryX=0.5;entryY=0;entryDx=0;entryDy=0;" edge="1" parent="1">
          <mxGeometry relative="1" as="geometry">
            <mxPoint x="960" y="640" as="sourcePoint" />
            <mxPoint x="1295.5000000000005" y="770" as="targetPoint" />
            <Array as="points">
              <mxPoint x="1050" y="640" />
              <mxPoint x="1296" y="640" />
            </Array>
          </mxGeometry>
        </mxCell>
        <mxCell id="_r8GsOCW0zwGEENWKaKQ-46" value="No Valid" style="edgeLabel;html=1;align=center;verticalAlign=middle;resizable=0;points=[];" vertex="1" connectable="0" parent="_r8GsOCW0zwGEENWKaKQ-45">
          <mxGeometry x="-0.2505" y="-3" relative="1" as="geometry">
            <mxPoint x="-14" y="7" as="offset" />
          </mxGeometry>
        </mxCell>
        <mxCell id="_r8GsOCW0zwGEENWKaKQ-33" value="Is Valid" style="rhombus;whiteSpace=wrap;html=1;" vertex="1" parent="1">
          <mxGeometry x="885" y="450" width="160" height="160" as="geometry" />
        </mxCell>
        <mxCell id="_r8GsOCW0zwGEENWKaKQ-37" value="Response Auth Resources_Access" style="text;html=1;strokeColor=none;fillColor=none;align=center;verticalAlign=middle;whiteSpace=wrap;rounded=0;" vertex="1" parent="1">
          <mxGeometry x="660" y="600" width="160" height="30" as="geometry" />
        </mxCell>
        <mxCell id="_r8GsOCW0zwGEENWKaKQ-38" value="" style="shape=cylinder3;whiteSpace=wrap;html=1;boundedLbl=1;backgroundOutline=1;size=15;" vertex="1" parent="1">
          <mxGeometry x="1380" y="20" width="120" height="150" as="geometry" />
        </mxCell>
        <mxCell id="_r8GsOCW0zwGEENWKaKQ-39" value="User" style="text;html=1;strokeColor=none;fillColor=none;align=center;verticalAlign=middle;whiteSpace=wrap;rounded=0;" vertex="1" parent="1">
          <mxGeometry x="1410" y="90" width="60" height="30" as="geometry" />
        </mxCell>
        <mxCell id="_r8GsOCW0zwGEENWKaKQ-40" style="edgeStyle=orthogonalEdgeStyle;rounded=0;orthogonalLoop=1;jettySize=auto;html=1;entryX=-0.019;entryY=0.447;entryDx=0;entryDy=0;entryPerimeter=0;" edge="1" parent="1" source="_r8GsOCW0zwGEENWKaKQ-20" target="_r8GsOCW0zwGEENWKaKQ-38">
          <mxGeometry relative="1" as="geometry" />
        </mxCell>
        <mxCell id="_r8GsOCW0zwGEENWKaKQ-44" value="Bifrosr 3 Status 419&amp;nbsp;&lt;br&gt;Unauthorized access" style="rounded=0;whiteSpace=wrap;html=1;" vertex="1" parent="1">
          <mxGeometry x="1191" y="770" width="219" height="190" as="geometry" />
        </mxCell>
        <mxCell id="_r8GsOCW0zwGEENWKaKQ-50" style="edgeStyle=orthogonalEdgeStyle;rounded=0;orthogonalLoop=1;jettySize=auto;html=1;" edge="1" parent="1" source="_r8GsOCW0zwGEENWKaKQ-48">
          <mxGeometry relative="1" as="geometry">
            <mxPoint x="2130" y="580" as="targetPoint" />
          </mxGeometry>
        </mxCell>
        <mxCell id="_r8GsOCW0zwGEENWKaKQ-53" style="edgeStyle=orthogonalEdgeStyle;rounded=0;orthogonalLoop=1;jettySize=auto;html=1;" edge="1" parent="1" source="_r8GsOCW0zwGEENWKaKQ-48" target="_r8GsOCW0zwGEENWKaKQ-52">
          <mxGeometry relative="1" as="geometry" />
        </mxCell>
        <mxCell id="_r8GsOCW0zwGEENWKaKQ-48" value="&lt;font style=&quot;font-size: 48px;&quot;&gt;Nest Auth&lt;/font&gt;" style="rounded=0;whiteSpace=wrap;html=1;" vertex="1" parent="1">
          <mxGeometry x="1810" y="220" width="640" height="190" as="geometry" />
        </mxCell>
        <mxCell id="_r8GsOCW0zwGEENWKaKQ-49" value="&lt;font style=&quot;font-size: 48px;&quot;&gt;Orchestrator&lt;/font&gt;" style="rounded=0;whiteSpace=wrap;html=1;" vertex="1" parent="1">
          <mxGeometry x="1820" y="580" width="630" height="190" as="geometry" />
        </mxCell>
        <mxCell id="_r8GsOCW0zwGEENWKaKQ-51" value="User Config Org" style="text;html=1;strokeColor=none;fillColor=none;align=center;verticalAlign=middle;whiteSpace=wrap;rounded=0;" vertex="1" parent="1">
          <mxGeometry x="2130" y="470" width="140" height="30" as="geometry" />
        </mxCell>
        <mxCell id="_r8GsOCW0zwGEENWKaKQ-52" value="Users" style="shape=cylinder3;whiteSpace=wrap;html=1;boundedLbl=1;backgroundOutline=1;size=15;" vertex="1" parent="1">
          <mxGeometry x="2590" y="35" width="130" height="155" as="geometry" />
        </mxCell>
        <mxCell id="_r8GsOCW0zwGEENWKaKQ-54" value="&lt;font style=&quot;font-size: 48px;&quot;&gt;roles&lt;/font&gt;" style="text;html=1;strokeColor=none;fillColor=none;align=center;verticalAlign=middle;whiteSpace=wrap;rounded=0;" vertex="1" parent="1">
          <mxGeometry x="2780" y="50" width="60" height="30" as="geometry" />
        </mxCell>
        <mxCell id="_r8GsOCW0zwGEENWKaKQ-55" value="&lt;pre style=&quot;unicode-bidi: isolate; font-size: 28px; line-height: 36px; background-color: rgb(48, 49, 52); border: none; padding: 2px 0.14em 2px 0px; position: relative; margin-top: -2px; margin-bottom: -2px; resize: none; font-family: inherit; overflow: hidden; text-align: left; width: 270px; overflow-wrap: break-word; color: rgb(232, 234, 237);&quot; dir=&quot;ltr&quot; data-ved=&quot;2ahUKEwiG5MXGhpeEAxVTfDABHWk1AGYQ3ewLegQIBRAU&quot; id=&quot;tw-target-text&quot; data-placeholder=&quot;TraducciÃ³n&quot; class=&quot;tw-data-text tw-text-large tw-ta&quot;&gt;Security politics&lt;/pre&gt;" style="text;html=1;align=center;verticalAlign=middle;resizable=0;points=[];autosize=1;strokeColor=none;fillColor=none;" vertex="1" parent="1">
          <mxGeometry x="2740" y="100" width="300" height="50" as="geometry" />
        </mxCell>
        <mxCell id="_r8GsOCW0zwGEENWKaKQ-56" value="&lt;pre style=&quot;unicode-bidi: isolate; font-size: 28px; line-height: 36px; background-color: rgb(48, 49, 52); border: none; padding: 2px 0.14em 2px 0px; position: relative; margin-top: -2px; margin-bottom: -2px; resize: none; font-family: inherit; overflow: hidden; text-align: left; width: 270px; overflow-wrap: break-word; color: rgb(232, 234, 237);&quot; dir=&quot;ltr&quot; data-ved=&quot;2ahUKEwiG5MXGhpeEAxVTfDABHWk1AGYQ3ewLegQIBRAU&quot; id=&quot;tw-target-text&quot; data-placeholder=&quot;TraducciÃ³n&quot; class=&quot;tw-data-text tw-text-large tw-ta&quot;&gt;Element&lt;/pre&gt;" style="text;html=1;align=center;verticalAlign=middle;resizable=0;points=[];autosize=1;strokeColor=none;fillColor=none;" vertex="1" parent="1">
          <mxGeometry x="2740" y="150" width="300" height="50" as="geometry" />
        </mxCell>
      </root>
    </mxGraphModel>
  </diagram>
</mxfile>
